<?xml version="1.0" standalone="no"?>
<!DOCTYPE svg PUBLIC "-//W3C//DTD SVG 20010904//EN"
 "http://www.w3.org/TR/2001/REC-SVG-20010904/DTD/svg10.dtd">
<svg version="1.0" xmlns="http://www.w3.org/2000/svg"
 width="400.000000pt" height="400.000000pt" viewBox="0 0 400.000000 400.000000"
 preserveAspectRatio="xMidYMid meet">
<g transform="translate(0.000000,400.000000) scale(0.100000,-0.100000)"
fill="#076665" stroke="none">
<path d="M1835 3940 c-27 -4 -93 -13 -145 -20 -210 -28 -472 -119 -669 -231
-223 -128 -418 -296 -571 -494 -276 -355 -413 -750 -414 -1190 -1 -450 147
-869 431 -1220 308 -381 751 -634 1238 -707 116 -17 434 -17 550 0 962 144
1671 962 1669 1927 0 357 -93 688 -277 995 -252 419 -670 737 -1143 870 -115
32 -158 40 -344 65 -122 16 -242 18 -325 5z m1207 -727 c17 -15 18 -64 18
-1160 0 -1130 0 -1143 -20 -1163 -20 -20 -33 -20 -1034 -20 -1010 0 -1013 0
-1040 21 l-26 20 0 1138 c0 1012 2 1139 16 1159 l15 22 1026 0 c941 0 1028 -1
1045 -17z"/>
<path d="M1084 3122 c-33 -22 -34 -44 -34 -1077 l0 -1026 25 -24 24 -25 904 0
c876 0 906 1 928 19 l24 19 3 1014 c1 557 0 1027 -3 1045 -12 68 58 63 -948
63 -502 0 -917 -4 -923 -8z m1760 -83 l26 -20 0 -234 0 -234 -26 -20 c-27 -21
-32 -21 -844 -21 -812 0 -817 0 -844 21 l-26 20 0 230 0 230 25 24 24 25 819
0 c814 0 819 0 846 -21z m-1655 -908 c11 -63 25 -117 31 -121 7 -4 63 -16 124
-25 61 -10 114 -20 118 -24 8 -7 -269 -3 -289 4 -10 3 -13 43 -12 157 1 84 3
146 5 138 2 -8 13 -66 23 -129z m440 11 c10 -62 24 -119 30 -126 7 -8 61 -21
127 -31 63 -10 116 -20 118 -24 4 -7 -271 -3 -291 4 -10 3 -13 43 -12 157 0
84 2 149 5 143 2 -5 12 -61 23 -123z m441 3 c11 -65 25 -124 30 -130 6 -7 62
-20 125 -30 63 -9 117 -20 119 -24 7 -11 -277 -1 -291 11 -10 8 -13 50 -13
156 0 80 2 143 5 140 3 -2 14 -58 25 -123z m439 1 c11 -65 25 -124 31 -131 6
-7 62 -20 125 -30 63 -9 117 -20 119 -24 2 -3 -62 -5 -142 -3 -100 2 -149 7
-154 15 -8 12 -11 304 -4 296 3 -2 14 -58 25 -123z m336 -686 l0 -375 -180 0
-180 0 -3 365 c-1 201 0 371 3 378 3 10 45 12 182 10 l178 -3 0 -375z m-1624
110 c7 -5 63 -16 126 -26 62 -10 113 -20 113 -24 0 -6 -267 -1 -287 5 -10 3
-13 43 -12 157 l1 153 23 -129 c13 -71 29 -132 36 -136z m408 132 c10 -62 24
-119 30 -126 7 -8 62 -22 126 -32 63 -10 115 -20 115 -24 0 -6 -267 -1 -287 5
-10 3 -13 43 -12 157 0 84 2 149 5 143 2 -5 12 -61 23 -123z m441 3 c11 -65
25 -124 30 -130 6 -7 61 -20 123 -30 61 -10 115 -21 120 -24 4 -4 -59 -5 -140
-3 -94 3 -151 9 -155 16 -8 12 -11 302 -3 294 3 -2 14 -58 25 -123z m-869
-522 c12 -61 16 -63 172 -84 48 -7 84 -15 80 -19 -4 -3 -71 -4 -148 -1 l-140
6 -2 155 -1 155 14 -80 c8 -44 19 -104 25 -132z m434 45 l17 -98 35 -9 c19 -5
77 -15 129 -22 52 -7 89 -15 82 -19 -7 -4 -76 -4 -153 -1 l-140 6 -2 155 c-1
162 1 161 32 -12z m435 37 c10 -65 25 -124 32 -132 8 -7 68 -22 133 -32 140
-22 136 -24 -45 -21 -88 1 -138 6 -142 14 -9 12 -11 302 -3 294 3 -3 14 -58
25 -123z"/>
<path d="M1659 2919 c-33 -35 -43 -79 -37 -151 10 -98 100 -146 199 -107 33
13 52 47 47 85 -2 23 -8 30 -30 32 -24 3 -28 0 -28 -22 0 -51 -53 -73 -90 -36
-16 16 -20 33 -20 80 0 64 21 100 58 100 23 0 52 -30 52 -54 0 -22 26 -32 45
-16 9 8 13 28 12 63 -2 42 -6 52 -21 55 -10 2 -22 -2 -27 -9 -6 -11 -11 -11
-21 -1 -6 6 -34 12 -61 12 -42 0 -53 -5 -78 -31z"/>
<path d="M1962 2934 c-35 -24 -55 -74 -55 -134 0 -101 46 -150 141 -150 83 0
132 58 132 155 0 53 -19 95 -56 124 -33 26 -128 29 -162 5z m122 -43 c9 -10
19 -40 22 -67 12 -96 -41 -159 -101 -120 -41 27 -47 145 -9 187 22 24 66 25
88 0z"/>
<path d="M2266 2777 c-30 -30 -32 -40 -11 -57 20 -17 45 -5 45 20 0 17 5 21
27 18 45 -5 41 -34 -9 -56 -56 -25 -80 -53 -76 -89 4 -32 44 -46 54 -18 6 14
9 14 30 0 48 -31 94 -14 94 36 0 29 -19 42 -40 29 -11 -7 -11 -11 1 -26 13
-16 12 -17 -11 -9 -14 4 -40 8 -57 8 -47 1 -41 13 17 32 61 20 80 38 80 74 0
37 -20 52 -74 58 -38 5 -48 2 -70 -20z"/>
</g>
</svg>
